<?xml version="1.0"?>
<svg xmlns="http://www.w3.org/2000/svg" height="512px" viewBox="-18 0 358 358.42002" width="512px" class=""><g><path d="m322.855469 240.230469c0 .660156-.011719 1.320312-.03125 1.980469h-29.21875c.019531-.660157.03125-1.320313.03125-1.980469.03125-22.527344-8.9375-44.136719-24.910157-60.019531l20.296876-20.300782.363281-.371094c21.460937 21.363282 33.507812 50.410157 33.46875 80.691407zm0 0" fill="#fedb41" data-original="#FEDB41" class=""/><path d="m322.535156 242.210938h.289063c-.464844 29.789062-12.625 58.199218-33.859375 79.097656l-.351563-.359375-20.308593-20.308594c15.742187-15.425781 24.820312-36.398437 25.300781-58.429687zm0 0" fill="#fedb41" data-original="#FEDB41" class=""/><path d="m124.144531 242.210938c-.019531-.660157-.03125-1.320313-.03125-1.980469.007813-45.902344 36.546875-83.460938 82.433594-84.730469.777344-.03125 1.546875-.039062 2.328125-.039062 46.8125.007812 84.757812 37.957031 84.761719 84.769531 0 .660156-.011719 1.320312-.03125 1.980469-1.09375 46.015624-38.699219 82.757812-84.730469 82.777343-.78125 0-1.550781-.007812-2.328125-.039062-45.113281-1.246094-81.339844-37.621094-82.402344-82.738281zm0 0" fill="#00efd1" data-original="#00EFD1"/><g fill="#fedb41"><path d="m289.386719 159.539062-.363281.371094-20.296876 20.300782c-15.871093-15.875-37.40625-24.78125-59.851562-24.75-.78125 0-1.550781.007812-2.328125.039062l-.011719-.289062v-28.929688c.78125-.019531 1.558594-.03125 2.339844-.03125 30.195312-.039062 59.160156 11.9375 80.511719 33.289062zm0 0" data-original="#FEDB41" class=""/><path d="m288.613281 320.949219.351563.359375c-21.308594 21.109375-50.097656 32.929687-80.089844 32.890625-.78125 0-1.558594-.007813-2.339844-.027344v-28.960937l.011719-.261719c.777344.03125 1.546875.039062 2.328125.039062 22.246094.03125 43.601562-8.71875 59.429688-24.347656zm0 0" data-original="#FEDB41" class=""/><path d="m134.796875 153.609375c19.941406-17.113281 45.210937-26.773437 71.488281-27.320313.082032-.007812.167969-.011718.25-.007812v28.929688l.011719.289062c-21.871094.566406-42.664063 9.601562-58 25.199219l-.011719-.007813-20.738281-20.5625c2.226563-2.269531 4.5625-4.441406 7-6.519531zm0 0" data-original="#FEDB41" class=""/><path d="m206.546875 324.949219-.011719.261719v28.960937c-3.628906-.070313-7.214844-.308594-10.75-.722656-25.585937-2.929688-49.417968-14.460938-67.589844-32.710938l20.667969-20.667969c15.3125 15.40625 35.96875 24.316407 57.683594 24.878907zm0 0" data-original="#FEDB41" class=""/></g><path d="m206.285156 126.078125v.210937c-26.277344.546876-51.546875 10.207032-71.488281 27.320313h-108.980469c-14.140625 0-25.601562-11.460937-25.601562-25.597656 0-14.140625 11.460937-25.601563 25.601562-25.601563h154.9375c13.390625 0 24.523438 10.316406 25.53125 23.667969zm0 0" fill="#00acea" data-original="#00ACEA"/><path d="m180.753906 0c14.140625 0 25.605469 11.464844 25.605469 25.605469s-11.464844 25.605469-25.605469 25.605469h-154.9375c-14.144531 0-25.605468-11.464844-25.605468-25.605469s11.460937-25.605469 25.605468-25.605469zm0 0" fill="#00acea" data-original="#00ACEA"/><path d="m180.753906 51.210938c14.140625 0 25.601563 11.460937 25.601563 25.597656 0 14.140625-11.460938 25.601562-25.601563 25.601562h-154.9375c-14.140625 0-25.601562-11.460937-25.601562-25.601562 0-14.136719 11.460937-25.597656 25.601562-25.597656zm0 0" fill="#00ceb4" data-original="#00CEB4"/><path d="m128.195312 320.738281c18.171876 18.25 42.003907 29.78125 67.589844 32.710938l-.011718.101562c-4.363282 3.171875-9.621094 4.875-15.019532 4.871094h-154.9375c-14.144531 0-25.605468-11.464844-25.605468-25.605469 0-14.144531 11.460937-25.605468 25.605468-25.605468h90.839844c3.488281 4.804687 7.34375 9.328124 11.539062 13.527343zm0 0" fill="#00acea" data-original="#00ACEA"/><path d="m116.65625 307.210938c-11.011719-15.101563-18.113281-32.691407-20.671875-51.199219-.636719-4.574219-.992187-9.183594-1.058594-13.800781h29.21875c.476563 21.75 9.332031 42.480468 24.71875 57.859374l-20.667969 20.667969c-4.195312-4.199219-8.050781-8.722656-11.539062-13.527343zm0 0" fill="#fedb41" data-original="#FEDB41" class=""/><path d="m148.535156 180.691406.011719.007813c-15.683594 15.84375-24.464844 37.242187-24.433594 59.53125 0 .660156.011719 1.320312.03125 1.980469h-29.21875c-.019531-.660157-.03125-1.320313-.03125-1.980469-.03125-29.996094 11.792969-58.789063 32.902344-80.101563zm0 0" fill="#fedb41" data-original="#FEDB41" class=""/><path d="m127.796875 160.128906c-12.457031 12.578125-21.800781 27.886719-27.292969 44.710938l-.078125-.03125h-74.609375c-14.140625 0-25.601562-11.460938-25.601562-25.597656 0-14.140626 11.460937-25.601563 25.601562-25.601563h108.980469c-2.433594 2.070313-4.765625 4.242187-7 6.519531zm0 0" fill="#00ceb4" data-original="#00CEB4"/><path d="m116.65625 307.210938h-90.839844c-14.140625 0-25.601562-11.460938-25.601562-25.601563 0-14.136719 11.460937-25.597656 25.601562-25.597656h70.167969c2.558594 18.507812 9.660156 36.097656 20.671875 51.199219zm0 0" fill="#00ceb4" data-original="#00CEB4"/><path d="m94.925781 242.210938c.066407 4.617187.421875 9.226562 1.058594 13.800781h-70.167969c-14.140625 0-25.601562-11.464844-25.601562-25.601563 0-14.136718 11.460937-25.601562 25.601562-25.601562h74.609375l.078125.03125c-3.726562 11.425781-5.621094 23.371094-5.609375 35.390625 0 .660156.011719 1.320312.03125 1.980469zm0 0" fill="#00acea" data-original="#00ACEA"/><path d="m237.183594 203.210938c3.316406 0 6-2.6875 6-6 0-3.316407-2.683594-6-6-6h-56.617188c-3.316406 0-6 2.683593-6 6 0 3.3125 2.683594 6 6 6h16.199219c7.710937-.050782 14.617187 4.753906 17.257813 12h-33.457032c-3.316406 0-6 2.683593-6 6 0 3.3125 2.683594 6 6 6h33.46875c-1.039062 2.492187-2.503906 4.789062-4.328125 6.785156-3.441406 3.402344-8.101562 5.28125-12.941406 5.214844h-16.199219c-2.472656.039062-4.675781 1.570312-5.578125 3.871093-.902343 2.300781-.328125 4.917969 1.457031 6.628907l40.488282 38.28125c1.152344 1.097656 2.695312 1.691406 4.289062 1.648437 1.589844-.042969 3.097656-.714844 4.191406-1.871094 2.277344-2.441406 2.171876-6.257812-.238281-8.570312l-29.523437-27.988281h1.113281c8.023437.074218 15.742187-3.070313 21.425781-8.734376 4.257813-4.121093 7.144532-9.449218 8.273438-15.265624h10.71875c3.316406 0 6-2.6875 6-6 0-3.316407-2.683594-6-6-6h-10.726563c-.695312-4.441407-2.625-8.601563-5.566406-12zm0 0" fill="#fedb41" data-original="#FEDB41" class=""/><path d="m322.535156 242.210938h.289063c-.464844 29.789062-12.625 58.199218-33.859375 79.097656l-.351563-.359375-20.308593-20.308594c15.742187-15.425781 24.820312-36.398437 25.300781-58.429687zm0 0" fill="#f4b844" data-original="#F4B844" class="active-path" style="fill:#F4B844"/><path d="m289.386719 159.539062-.363281.371094-20.296876 20.300782c-15.871093-15.875-37.40625-24.78125-59.851562-24.75-.78125 0-1.550781.007812-2.328125.039062l-.011719-.289062v-28.929688c.78125-.019531 1.558594-.03125 2.339844-.03125 30.195312-.039062 59.160156 11.9375 80.511719 33.289062zm0 0" fill="#f4b844" data-original="#F4B844" class="active-path" style="fill:#F4B844"/><path d="m206.546875 324.949219-.011719.261719v28.960937c-3.628906-.070313-7.214844-.308594-10.75-.722656-25.585937-2.929688-49.417968-14.460938-67.589844-32.710938l20.667969-20.667969c15.3125 15.40625 35.96875 24.316407 57.683594 24.878907zm0 0" fill="#f4b844" data-original="#F4B844" class="active-path" style="fill:#F4B844"/><path d="m148.535156 180.691406.011719.007813c-15.683594 15.84375-24.464844 37.242187-24.433594 59.53125 0 .660156.011719 1.320312.03125 1.980469h-29.21875c-.019531-.660157-.03125-1.320313-.03125-1.980469-.03125-29.996094 11.792969-58.789063 32.902344-80.101563zm0 0" fill="#f4b844" data-original="#F4B844" class="active-path" style="fill:#F4B844"/></g> </svg>
