<?xml version="1.0"?>
<svg xmlns="http://www.w3.org/2000/svg" id="Layer_1" enable-background="new 0 0 256 256" height="512px" viewBox="0 0 256 256" width="512px"><g><path d="m216.999 240.936h-177.998c-13.808 0-25.001-11.193-25.001-25.001v-153.697c0-13.807 11.193-25.001 25.001-25.001h177.999c13.807 0 25.001 11.193 25.001 25.001v153.697c-.001 13.808-11.194 25.001-25.002 25.001z" fill="#f9cfcf" data-original="#F9CFCF"/><g fill="#f9a7a7"><path d="m85.224 133.531v-22.206c0-2.23 1.808-4.037 4.038-4.037h28.262c2.23 0 4.037 1.808 4.037 4.037v22.206c0 2.23-1.808 4.037-4.037 4.037h-28.263c-2.229 0-4.037-1.808-4.037-4.037z" data-original="#F9A7A7"/><path d="m133.834 133.531v-22.206c0-2.23 1.808-4.037 4.038-4.037h28.262c2.23 0 4.037 1.808 4.037 4.037v22.206c0 2.23-1.808 4.037-4.037 4.037h-28.262c-2.23 0-4.038-1.808-4.038-4.037z" data-original="#F9A7A7"/><path d="m182.444 133.531v-22.206c0-2.23 1.808-4.037 4.037-4.037h28.262c2.23 0 4.038 1.808 4.038 4.037v22.206c0 2.23-1.808 4.037-4.038 4.037h-28.262c-2.229 0-4.037-1.808-4.037-4.037z" data-original="#F9A7A7"/><path d="m36.614 173.906v-22.206c0-2.23 1.808-4.038 4.038-4.038h28.263c2.23 0 4.037 1.808 4.037 4.038v22.206c0 2.23-1.808 4.037-4.037 4.037h-28.264c-2.23 0-4.037-1.808-4.037-4.037z" data-original="#F9A7A7"/><path d="m85.224 173.906v-22.206c0-2.23 1.808-4.038 4.038-4.038h28.262c2.23 0 4.037 1.808 4.037 4.038v22.206c0 2.23-1.808 4.037-4.037 4.037h-28.263c-2.229 0-4.037-1.808-4.037-4.037z" data-original="#F9A7A7"/><path d="m133.834 173.906v-22.206c0-2.23 1.808-4.038 4.038-4.038h28.262c2.23 0 4.037 1.808 4.037 4.038v22.206c0 2.23-1.808 4.037-4.037 4.037h-28.262c-2.23 0-4.038-1.808-4.038-4.037z" data-original="#F9A7A7"/><path d="m182.444 173.906v-22.206c0-2.23 1.808-4.038 4.037-4.038h28.262c2.23 0 4.038 1.808 4.038 4.038v22.206c0 2.23-1.808 4.037-4.038 4.037h-28.262c-2.229 0-4.037-1.808-4.037-4.037z" data-original="#F9A7A7"/><path d="m36.614 216.299v-22.206c0-2.23 1.808-4.038 4.038-4.038h28.263c2.23 0 4.037 1.808 4.037 4.038v22.206c0 2.23-1.808 4.037-4.037 4.037h-28.264c-2.23.001-4.037-1.807-4.037-4.037z" data-original="#F9A7A7"/><path d="m85.224 216.299v-22.206c0-2.23 1.808-4.038 4.038-4.038h28.262c2.23 0 4.037 1.808 4.037 4.038v22.206c0 2.23-1.808 4.037-4.037 4.037h-28.263c-2.229.001-4.037-1.807-4.037-4.037z" data-original="#F9A7A7"/><path d="m133.834 216.299v-22.206c0-2.23 1.808-4.038 4.038-4.038h28.262c2.23 0 4.037 1.808 4.037 4.038v22.206c0 2.23-1.808 4.037-4.037 4.037h-28.262c-2.23.001-4.038-1.807-4.038-4.037z" data-original="#F9A7A7"/></g><path d="m14 62.238v26.421h228v-26.421c0-13.807-11.193-25.001-25.001-25.001h-177.998c-13.808 0-25.001 11.194-25.001 25.001z" fill="#a4c9ff" data-original="#A4C9FF"/><path d="m217 242.936h-178c-14.888 0-27-12.112-27-27v-153.698c0-14.889 12.112-27.001 27-27.001h178c14.888 0 27 12.112 27 27.001v153.697c0 14.888-12.112 27.001-27 27.001zm-178-203.699c-12.683 0-23 10.318-23 23.001v153.697c0 12.683 10.318 23 23 23h178c12.683 0 23-10.317 23-23v-153.697c0-12.683-10.318-23.001-23-23.001z" fill="#3762cc" data-original="#3762CC"/><path d="m242 90.659h-228c-1.104 0-2-.896-2-2v-26.421c0-14.889 12.112-27.001 27-27.001h178c14.888 0 27 12.112 27 27.001v26.421c0 1.105-.896 2-2 2zm-226-4h224v-24.421c0-12.683-10.318-23.001-23-23.001h-178c-12.683 0-23 10.318-23 23.001z" fill="#3762cc" data-original="#3762CC"/><path d="m192.125 68.502h-.5c-6.558 0-11.875-5.317-11.875-11.875v-29.688c0-6.558 5.317-11.875 11.875-11.875h.5c6.558 0 11.875 5.317 11.875 11.875v29.688c0 6.558-5.317 11.875-11.875 11.875z" fill="#e0ebfc" data-original="#E0EBFC"/><path d="m64.375 68.502h-.5c-6.558 0-11.875-5.317-11.875-11.875v-29.688c0-6.558 5.317-11.875 11.875-11.875h.5c6.558 0 11.875 5.317 11.875 11.875v29.688c0 6.558-5.317 11.875-11.875 11.875z" fill="#e0ebfc" data-original="#E0EBFC"/><path d="m192.125 70.502h-.5c-7.651 0-13.875-6.225-13.875-13.875v-29.688c0-7.65 6.224-13.875 13.875-13.875h.5c7.651 0 13.875 6.225 13.875 13.875v29.688c0 7.65-6.224 13.875-13.875 13.875zm-.5-53.438c-5.445 0-9.875 4.43-9.875 9.875v29.688c0 5.445 4.43 9.875 9.875 9.875h.5c5.445 0 9.875-4.43 9.875-9.875v-29.688c0-5.445-4.43-9.875-9.875-9.875z" fill="#3762cc" data-original="#3762CC"/><path d="m64.375 70.502h-.5c-7.651 0-13.875-6.225-13.875-13.875v-29.688c0-7.65 6.224-13.875 13.875-13.875h.5c7.651 0 13.875 6.225 13.875 13.875v29.688c0 7.65-6.225 13.875-13.875 13.875zm-.5-53.438c-5.445 0-9.875 4.43-9.875 9.875v29.688c0 5.445 4.43 9.875 9.875 9.875h.5c5.445 0 9.875-4.43 9.875-9.875v-29.688c0-5.445-4.43-9.875-9.875-9.875z" fill="#3762cc" data-original="#3762CC"/><path d="m127.948 68.502h-.5c-6.558 0-11.875-5.317-11.875-11.875v-29.688c0-6.558 5.317-11.875 11.875-11.875h.5c6.558 0 11.875 5.317 11.875 11.875v29.688c0 6.558-5.317 11.875-11.875 11.875z" fill="#e0ebfc" data-original="#E0EBFC"/><path d="m192.125 70.502h-.5c-7.651 0-13.875-6.225-13.875-13.875v-29.688c0-7.65 6.224-13.875 13.875-13.875h.5c7.651 0 13.875 6.225 13.875 13.875v29.688c0 7.65-6.224 13.875-13.875 13.875zm-.5-53.438c-5.445 0-9.875 4.43-9.875 9.875v29.688c0 5.445 4.43 9.875 9.875 9.875h.5c5.445 0 9.875-4.43 9.875-9.875v-29.688c0-5.445-4.43-9.875-9.875-9.875z" fill="#3762cc" data-original="#3762CC"/><path d="m127.948 70.502h-.5c-7.651 0-13.875-6.225-13.875-13.875v-29.688c0-7.65 6.224-13.875 13.875-13.875h.5c7.651 0 13.875 6.225 13.875 13.875v29.688c0 7.65-6.224 13.875-13.875 13.875zm-.5-53.438c-5.445 0-9.875 4.43-9.875 9.875v29.688c0 5.445 4.43 9.875 9.875 9.875h.5c5.445 0 9.875-4.43 9.875-9.875v-29.688c0-5.445-4.43-9.875-9.875-9.875z" fill="#3762cc" data-original="#3762CC"/><path d="m209.71 231.614h-163.42c-2.358 0-4.27-1.912-4.27-4.27v-.004c0-2.358 1.912-4.27 4.27-4.27h163.42c2.358 0 4.27 1.912 4.27 4.27v.004c.001 2.358-1.911 4.27-4.27 4.27z" fill="#e0ebfc" data-original="#E0EBFC"/><path d="m209.71 233.614h-163.42c-3.458 0-6.271-2.813-6.271-6.271 0-3.462 2.813-6.274 6.271-6.274h163.42c3.458 0 6.271 2.813 6.271 6.271-.001 3.462-2.814 6.274-6.271 6.274zm-163.42-8.545c-1.252 0-2.271 1.019-2.271 2.271 0 1.256 1.019 2.274 2.271 2.274h163.42c1.252 0 2.271-1.019 2.271-2.271 0-1.256-1.019-2.274-2.271-2.274z" fill="#3762cc" data-original="#3762CC"/><path d="m124.007 223.069h-59.206c-2.11 0-3.82-1.71-3.82-3.82v-103.133c0-2.11 1.71-3.82 3.82-3.82h59.206c2.11 0 3.82 1.71 3.82 3.82v103.133c0 2.11-1.71 3.82-3.82 3.82z" fill="#a4c9ff" data-original="#A4C9FF"/><path d="m105.116 223.069h-21.424v-11.464c0-5.916 4.796-10.712 10.712-10.712 5.916 0 10.712 4.796 10.712 10.712z" fill="#4671c6" data-original="#4671C6"/><path d="m119.233 112.297h-49.657v-10.08c0-2.11 1.71-3.82 3.82-3.82h42.017c2.11 0 3.82 1.71 3.82 3.82z" fill="#e0ebfc" data-original="#E0EBFC"/><path d="m124.007 225.069h-59.206c-3.209 0-5.82-2.611-5.82-5.82v-103.133c0-3.209 2.611-5.819 5.82-5.819h59.206c3.209 0 5.82 2.61 5.82 5.819v103.133c0 3.209-2.611 5.82-5.82 5.82zm-59.206-110.772c-1.003 0-1.82.816-1.82 1.819v103.133c0 1.004.816 1.82 1.82 1.82h59.206c1.003 0 1.82-.816 1.82-1.82v-103.133c0-1.003-.816-1.819-1.82-1.819z" fill="#3762cc" data-original="#3762CC"/><path d="m105.116 225.069h-21.424c-1.104 0-2-.896-2-2v-11.464c0-7.01 5.703-12.712 12.712-12.712s12.712 5.702 12.712 12.712v11.464c0 1.105-.895 2-2 2zm-19.424-4h17.424v-9.464c0-4.804-3.908-8.712-8.712-8.712s-8.712 3.908-8.712 8.712z" fill="#3762cc" data-original="#3762CC"/><path d="m119.232 114.297h-49.656c-1.104 0-2-.896-2-2v-10.08c0-3.209 2.611-5.819 5.82-5.819h42.017c3.209 0 5.82 2.61 5.82 5.819v10.08c-.001 1.104-.896 2-2.001 2zm-47.656-4h45.656v-8.08c0-1.003-.816-1.819-1.82-1.819h-42.016c-1.003 0-1.82.816-1.82 1.819z" fill="#3762cc" data-original="#3762CC"/><path d="m87.217 138.186h-12.627c-1.758 0-3.183-1.425-3.183-3.183v-6.366c0-1.758 1.425-3.183 3.183-3.183h12.626c1.758 0 3.183 1.425 3.183 3.183v6.366c.001 1.758-1.424 3.183-3.182 3.183z" fill="#e0ebfc" data-original="#E0EBFC"/><path d="m87.217 163.651h-12.627c-1.758 0-3.183-1.425-3.183-3.183v-6.366c0-1.758 1.425-3.183 3.183-3.183h12.626c1.758 0 3.183 1.425 3.183 3.183v6.366c.001 1.758-1.424 3.183-3.182 3.183z" fill="#e0ebfc" data-original="#E0EBFC"/><path d="m114.218 163.651h-12.626c-1.758 0-3.183-1.425-3.183-3.183v-6.366c0-1.758 1.425-3.183 3.183-3.183h12.626c1.758 0 3.183 1.425 3.183 3.183v6.366c0 1.758-1.425 3.183-3.183 3.183z" fill="#e0ebfc" data-original="#E0EBFC"/><path d="m114.218 138.186h-12.626c-1.758 0-3.183-1.425-3.183-3.183v-6.366c0-1.758 1.425-3.183 3.183-3.183h12.626c1.758 0 3.183 1.425 3.183 3.183v6.366c0 1.758-1.425 3.183-3.183 3.183z" fill="#e0ebfc" data-original="#E0EBFC"/><path d="m87.217 189.116h-12.627c-1.758 0-3.183-1.425-3.183-3.183v-6.366c0-1.758 1.425-3.183 3.183-3.183h12.626c1.758 0 3.183 1.425 3.183 3.183v6.366c.001 1.758-1.424 3.183-3.182 3.183z" fill="#e0ebfc" data-original="#E0EBFC"/><path d="m114.218 189.116h-12.626c-1.758 0-3.183-1.425-3.183-3.183v-6.366c0-1.758 1.425-3.183 3.183-3.183h12.626c1.758 0 3.183 1.425 3.183 3.183v6.366c0 1.758-1.425 3.183-3.183 3.183z" fill="#e0ebfc" data-original="#E0EBFC"/><path d="m87.217 140.187h-12.627c-2.858 0-5.183-2.325-5.183-5.184v-6.366c0-2.858 2.325-5.184 5.183-5.184h12.626c2.858 0 5.183 2.325 5.183 5.184v6.366c.001 2.858-2.324 5.184-5.182 5.184zm-12.627-12.734c-.652 0-1.183.531-1.183 1.184v6.366c0 .652.531 1.184 1.183 1.184h12.626c.652 0 1.183-.531 1.183-1.184v-6.366c0-.652-.531-1.184-1.183-1.184z" fill="#3762cc" data-original="#3762CC"/><path d="m87.217 165.651h-12.627c-2.858 0-5.183-2.325-5.183-5.184v-6.366c0-2.857 2.325-5.183 5.183-5.183h12.626c2.858 0 5.183 2.325 5.183 5.183v6.366c.001 2.859-2.324 5.184-5.182 5.184zm-12.627-12.732c-.652 0-1.183.53-1.183 1.183v6.366c0 .652.531 1.184 1.183 1.184h12.626c.652 0 1.183-.531 1.183-1.184v-6.366c0-.652-.531-1.183-1.183-1.183z" fill="#3762cc" data-original="#3762CC"/><path d="m114.218 165.651h-12.626c-2.858 0-5.183-2.325-5.183-5.184v-6.366c0-2.857 2.325-5.183 5.183-5.183h12.626c2.858 0 5.183 2.325 5.183 5.183v6.366c0 2.859-2.325 5.184-5.183 5.184zm-12.626-12.732c-.652 0-1.183.53-1.183 1.183v6.366c0 .652.531 1.184 1.183 1.184h12.626c.652 0 1.183-.531 1.183-1.184v-6.366c0-.652-.531-1.183-1.183-1.183z" fill="#3762cc" data-original="#3762CC"/><path d="m114.218 140.187h-12.626c-2.858 0-5.183-2.325-5.183-5.184v-6.366c0-2.858 2.325-5.184 5.183-5.184h12.626c2.858 0 5.183 2.325 5.183 5.184v6.366c0 2.858-2.325 5.184-5.183 5.184zm-12.626-12.734c-.652 0-1.183.531-1.183 1.184v6.366c0 .652.531 1.184 1.183 1.184h12.626c.652 0 1.183-.531 1.183-1.184v-6.366c0-.652-.531-1.184-1.183-1.184z" fill="#3762cc" data-original="#3762CC"/><path d="m87.217 191.116h-12.627c-2.858 0-5.183-2.325-5.183-5.184v-6.366c0-2.857 2.325-5.183 5.183-5.183h12.626c2.858 0 5.183 2.325 5.183 5.183v6.366c.001 2.859-2.324 5.184-5.182 5.184zm-12.627-12.732c-.652 0-1.183.53-1.183 1.183v6.366c0 .652.531 1.184 1.183 1.184h12.626c.652 0 1.183-.531 1.183-1.184v-6.366c0-.652-.531-1.183-1.183-1.183z" fill="#3762cc" data-original="#3762CC"/><path d="m114.218 191.116h-12.626c-2.858 0-5.183-2.325-5.183-5.184v-6.366c0-2.857 2.325-5.183 5.183-5.183h12.626c2.858 0 5.183 2.325 5.183 5.183v6.366c0 2.859-2.325 5.184-5.183 5.184zm-12.626-12.732c-.652 0-1.183.53-1.183 1.183v6.366c0 .652.531 1.184 1.183 1.184h12.626c.652 0 1.183-.531 1.183-1.184v-6.366c0-.652-.531-1.183-1.183-1.183z" fill="#3762cc" data-original="#3762CC"/><path d="m191.09 223.069h-59.68c-1.979 0-3.583-1.604-3.583-3.583v-84.872c0-1.979 1.604-3.583 3.583-3.583h59.68c1.979 0 3.583 1.604 3.583 3.583v84.872c-.001 1.979-1.605 3.583-3.583 3.583z" fill="#6bdddd" data-original="#6BDDDD" class="active-path" style="fill:#6BDDDD"/><path d="m171.962 223.069h-21.424v-11.464c0-5.916 4.796-10.712 10.712-10.712 5.916 0 10.712 4.796 10.712 10.712z" fill="#4671c6" data-original="#4671C6"/><path d="m186.078 131.032h-49.657v-10.08c0-2.11 1.71-3.82 3.82-3.82h42.017c2.11 0 3.82 1.71 3.82 3.82z" fill="#e0ebfc" data-original="#E0EBFC"/><path d="m191.09 225.069h-59.68c-3.078 0-5.583-2.505-5.583-5.583v-84.872c0-3.078 2.504-5.582 5.583-5.582h59.68c3.078 0 5.583 2.504 5.583 5.582v84.872c-.001 3.078-2.505 5.583-5.583 5.583zm-59.68-92.037c-.873 0-1.583.71-1.583 1.582v84.872c0 .873.71 1.583 1.583 1.583h59.68c.873 0 1.583-.71 1.583-1.583v-84.872c0-.872-.71-1.582-1.583-1.582z" fill="#3762cc" data-original="#3762CC"/><path d="m171.961 225.069h-21.424c-1.104 0-2-.896-2-2v-11.464c0-7.01 5.703-12.712 12.712-12.712s12.712 5.702 12.712 12.712v11.464c0 1.105-.895 2-2 2zm-19.423-4h17.424v-9.464c0-4.804-3.908-8.712-8.712-8.712s-8.712 3.908-8.712 8.712z" fill="#3762cc" data-original="#3762CC"/><path d="m186.078 133.032h-49.656c-1.104 0-2-.896-2-2v-10.08c0-3.209 2.611-5.819 5.82-5.819h42.017c3.209 0 5.819 2.61 5.819 5.819v10.08c0 1.105-.896 2-2 2zm-47.657-4h45.656v-8.08c0-1.003-.816-1.819-1.819-1.819h-42.017c-1.003 0-1.82.816-1.82 1.819z" fill="#3762cc" data-original="#3762CC"/><path d="m154.062 163.651h-12.626c-1.758 0-3.183-1.425-3.183-3.183v-6.366c0-1.758 1.425-3.183 3.183-3.183h12.626c1.758 0 3.183 1.425 3.183 3.183v6.366c0 1.758-1.425 3.183-3.183 3.183z" fill="#e0ebfc" data-original="#E0EBFC"/><path d="m181.064 163.651h-12.626c-1.758 0-3.183-1.425-3.183-3.183v-6.366c0-1.758 1.425-3.183 3.183-3.183h12.626c1.758 0 3.183 1.425 3.183 3.183v6.366c0 1.758-1.425 3.183-3.183 3.183z" fill="#e0ebfc" data-original="#E0EBFC"/><path d="m154.062 189.116h-12.626c-1.758 0-3.183-1.425-3.183-3.183v-6.366c0-1.758 1.425-3.183 3.183-3.183h12.626c1.758 0 3.183 1.425 3.183 3.183v6.366c0 1.758-1.425 3.183-3.183 3.183z" fill="#e0ebfc" data-original="#E0EBFC"/><path d="m181.064 189.116h-12.626c-1.758 0-3.183-1.425-3.183-3.183v-6.366c0-1.758 1.425-3.183 3.183-3.183h12.626c1.758 0 3.183 1.425 3.183 3.183v6.366c0 1.758-1.425 3.183-3.183 3.183z" fill="#e0ebfc" data-original="#E0EBFC"/><path d="m154.062 165.651h-12.626c-2.858 0-5.183-2.325-5.183-5.184v-6.366c0-2.857 2.325-5.183 5.183-5.183h12.626c2.858 0 5.183 2.325 5.183 5.183v6.366c0 2.859-2.325 5.184-5.183 5.184zm-12.626-12.732c-.652 0-1.183.53-1.183 1.183v6.366c0 .652.531 1.184 1.183 1.184h12.626c.652 0 1.183-.531 1.183-1.184v-6.366c0-.652-.531-1.183-1.183-1.183z" fill="#3762cc" data-original="#3762CC"/><path d="m181.063 165.651h-12.626c-2.858 0-5.183-2.325-5.183-5.184v-6.366c0-2.857 2.325-5.183 5.183-5.183h12.626c2.858 0 5.183 2.325 5.183 5.183v6.366c.001 2.859-2.325 5.184-5.183 5.184zm-12.626-12.732c-.652 0-1.183.53-1.183 1.183v6.366c0 .652.531 1.184 1.183 1.184h12.626c.652 0 1.183-.531 1.183-1.184v-6.366c0-.652-.531-1.183-1.183-1.183z" fill="#3762cc" data-original="#3762CC"/><path d="m154.062 191.116h-12.626c-2.858 0-5.183-2.325-5.183-5.184v-6.366c0-2.857 2.325-5.183 5.183-5.183h12.626c2.858 0 5.183 2.325 5.183 5.183v6.366c0 2.859-2.325 5.184-5.183 5.184zm-12.626-12.732c-.652 0-1.183.53-1.183 1.183v6.366c0 .652.531 1.184 1.183 1.184h12.626c.652 0 1.183-.531 1.183-1.184v-6.366c0-.652-.531-1.183-1.183-1.183z" fill="#3762cc" data-original="#3762CC"/><path d="m181.063 191.116h-12.626c-2.858 0-5.183-2.325-5.183-5.184v-6.366c0-2.857 2.325-5.183 5.183-5.183h12.626c2.858 0 5.183 2.325 5.183 5.183v6.366c.001 2.859-2.325 5.184-5.183 5.184zm-12.626-12.732c-.652 0-1.183.53-1.183 1.183v6.366c0 .652.531 1.184 1.183 1.184h12.626c.652 0 1.183-.531 1.183-1.184v-6.366c0-.652-.531-1.183-1.183-1.183z" fill="#3762cc" data-original="#3762CC"/><path d="m138.975 197.065h-2.894c-.006 0-.012-.001-.019-.001l-.001.001h-19.037c-5.029 0-9.106 4.077-9.106 9.106v4.568 1.297 2.402 8.63h.425 4.928 34.81v-8.63-2.402-1.297-4.568c0-5.029-4.077-9.106-9.106-9.106z" fill="#e0ebfc" data-original="#E0EBFC"/><path d="m145.968 171.134c-.038 0-.075.005-.113.006v-1.672c0-9.772-7.994-17.695-17.855-17.695-9.861 0-17.855 7.922-17.855 17.695v1.672c-.038-.001-.075-.006-.113-.006-3.008 0-5.447 2.417-5.447 5.398s2.439 5.398 5.447 5.398c.198 0 .392-.012.584-.032 1.843 7.828 8.923 13.661 17.384 13.661 8.46 0 15.541-5.833 17.384-13.661.192.02.387.032.584.032 3.008 0 5.447-2.417 5.447-5.398.001-2.981-2.438-5.398-5.447-5.398z" fill="#f9cfcf" data-original="#F9CFCF"/><path d="m119.127 179.856c-1.189 0-2.156-.967-2.156-2.155v-3.592c0-1.188.967-2.155 2.156-2.155 1.188 0 2.155.967 2.155 2.155v3.592c0 1.188-.966 2.155-2.155 2.155z" fill="#3762cc" data-original="#3762CC"/><path d="m136.789 179.856c-1.189 0-2.156-.967-2.156-2.155v-3.592c0-1.188.967-2.155 2.156-2.155 1.188 0 2.155.967 2.155 2.155v3.592c0 1.188-.967 2.155-2.155 2.155z" fill="#3762cc" data-original="#3762CC"/><path d="m128 197.56c-8.742 0-16.306-5.554-18.911-13.688-3.663-.462-6.505-3.577-6.505-7.34 0-3.432 2.364-6.326 5.56-7.158.051-10.816 8.938-19.601 19.855-19.601s19.804 8.784 19.855 19.601c3.196.832 5.56 3.727 5.56 7.158 0 3.763-2.842 6.878-6.505 7.34-2.603 8.134-10.167 13.688-18.909 13.688zm-17.382-17.662c.918 0 1.731.631 1.945 1.542 1.68 7.136 8.028 12.119 15.437 12.119s13.757-4.983 15.437-12.119c.231-.98 1.157-1.641 2.159-1.53.122.013.246.021.372.021 1.901 0 3.447-1.524 3.447-3.398 0-1.86-1.524-3.377-3.407-3.398-.072.004-.117.007-.153.006-.521 0-1.022-.203-1.396-.567-.387-.377-.604-.894-.604-1.433v-1.672c0-8.654-7.113-15.694-15.855-15.694s-15.855 7.04-15.855 15.694v1.672c0 .539-.218 1.056-.604 1.433-.386.376-.905.594-1.447.566-.031-.001-.112-.005-.143-.007-1.819.002-3.366 1.526-3.366 3.4s1.546 3.398 3.447 3.398c.126 0 .25-.008.373-.021.071-.008.142-.012.213-.012z" fill="#3762cc" data-original="#3762CC"/><path d="m124.267 168.105h-18.503c-.651 0-1.18-.528-1.18-1.18v-4.721c0-8.896 7.212-16.108 16.108-16.108h8.588c2.443 0 4.423 1.98 4.423 4.423v8.148c0 5.213-4.225 9.438-9.436 9.438z" fill="#4671c6" data-original="#4671C6"/><path d="m150.236 168.105h-7.096c-5.212 0-9.437-4.225-9.437-9.437v-8.148c0-2.443 1.98-4.423 4.423-4.423 7.339 0 13.289 5.95 13.289 13.289v7.54c.001.651-.527 1.179-1.179 1.179z" fill="#4671c6" data-original="#4671C6"/><path d="m128 195.56c-2.918 0-5.671-.694-8.102-1.924v3.092c0 4.473 3.626 8.1 8.1 8.1 4.473 0 8.1-3.626 8.1-8.1v-3.09c-2.43 1.229-5.182 1.922-8.098 1.922z" fill="#f9cfcf" data-original="#F9CFCF"/><path d="m127.966 200.753-3.649 3.668 1.246 4.084h2.403.037 2.402l1.246-4.084-3.648-3.668z" fill="#f9a7a7" data-original="#F9A7A7"/><path d="m130.405 210.505h-4.842c-.88 0-1.656-.575-1.913-1.416l-1.246-4.083c-.215-.705-.025-1.472.495-1.994l3.648-3.669c.375-.378.886-.59 1.418-.59h.038c.532 0 1.043.212 1.418.59l3.648 3.669c.52.522.71 1.289.495 1.994l-1.246 4.083c-.256.841-1.033 1.416-1.913 1.416zm-3.361-4h1.881l.464-1.521-1.405-1.413-1.405 1.413z" fill="#3762cc" data-original="#3762CC"/><path d="m132.242 223.069-1.85-14.564h-4.816l-1.849 14.564z" fill="#f9a7a7" data-original="#F9A7A7"/><path d="m124.267 170.104h-18.502c-1.753 0-3.18-1.427-3.18-3.18v-4.721c0-9.985 8.123-18.108 18.107-18.108h8.588c3.542 0 6.424 2.882 6.424 6.424v8.148c0 6.307-5.131 11.437-11.437 11.437zm-17.683-4h17.682c4.101 0 7.437-3.336 7.437-7.437v-8.148c0-1.337-1.087-2.424-2.424-2.424h-8.588c-7.779 0-14.107 6.329-14.107 14.108z" fill="#3762cc" data-original="#3762CC"/><path d="m150.236 170.104h-7.096c-6.306 0-11.437-5.131-11.437-11.437v-8.148c0-3.542 2.881-6.424 6.423-6.424 8.43 0 15.289 6.858 15.289 15.289v7.54c.001 1.754-1.426 3.18-3.179 3.18zm-12.109-22.008c-1.336 0-2.423 1.087-2.423 2.424v8.148c0 4.101 3.336 7.437 7.437 7.437h6.275v-6.72c0-6.225-5.064-11.289-11.289-11.289z" fill="#3762cc" data-original="#3762CC"/><path d="m148.082 225.069h-40.163c-1.104 0-2-.896-2-2v-16.898c0-6.124 4.982-11.105 11.106-11.105h.873v-1.43c0-.694.36-1.34.953-1.704.591-.363 1.33-.395 1.95-.081 2.242 1.134 4.664 1.709 7.199 1.709 2.534 0 4.955-.574 7.195-1.707.619-.313 1.357-.281 1.95.081.592.364.952 1.01.952 1.704v1.428h.877c6.124 0 11.106 4.981 11.106 11.105v16.898c.002 1.105-.894 2-1.998 2zm-38.164-4h36.163v-14.898c0-3.918-3.188-7.105-7.106-7.105h-2.894c-.542 0-1.062-.221-1.438-.61s-.579-.917-.561-1.459l.011-.38c-3.911 1.255-8.286 1.253-12.195-.002l.015.365c.023.545-.176 1.075-.554 1.47-.377.394-.899.616-1.444.616h-2.89c-3.918 0-7.106 3.188-7.106 7.105v14.898z" fill="#3762cc" data-original="#3762CC"/><path d="m128 200.753-2.506 4.721c-.228.43-.817.496-1.135.126l-7.003-8.149c-.198-.23-.222-.562-.061-.818l.771-1.226c.241-.383.662-.616 1.115-.616h.717z" fill="#e0ebfc" data-original="#E0EBFC"/><path d="m124.883 207.842c-.779 0-1.525-.339-2.04-.938l-7.003-8.148c-.772-.903-.868-2.182-.238-3.185l.772-1.229c.609-.97 1.659-1.551 2.807-1.551h.717c.426 0 .842.137 1.185.389l8.102 5.961c.799.588 1.046 1.673.582 2.549l-2.506 4.721c-.416.785-1.193 1.314-2.078 1.413-.1.012-.201.018-.3.018zm-1.155-3.307c0 .001-.001.002-.001.003zm-3.983-7.373 4.881 5.681.797-1.502z" fill="#3762cc" data-original="#3762CC"/><path d="m127.969 200.753 2.506 4.721c.228.43.817.496 1.135.126l7.003-8.149c.198-.23.222-.562.061-.818l-.771-1.226c-.241-.383-.662-.616-1.115-.616h-.717z" fill="#e0ebfc" data-original="#E0EBFC"/><path d="m131.086 207.842c-.1 0-.199-.006-.299-.018-.885-.099-1.663-.627-2.08-1.415l-2.505-4.719c-.465-.876-.218-1.961.582-2.549l8.102-5.961c.343-.252.759-.389 1.185-.389h.717c1.148 0 2.198.581 2.809 1.554l.77 1.224c.631 1.003.537 2.282-.234 3.184l-7.006 8.151c-.515.599-1.261.938-2.041.938zm1.154-3.309.001.003c0-.001-.001-.002-.001-.003zm-1.695-3.192.797 1.502 4.881-5.68z" fill="#3762cc" data-original="#3762CC"/><path d="m132.242 225.069h-8.515c-.574 0-1.121-.247-1.5-.678-.38-.431-.556-1.005-.483-1.574l1.85-14.564c.126-.999.977-1.748 1.984-1.748h4.815c1.007 0 1.857.749 1.984 1.748l1.85 14.564c.073.569-.104 1.144-.483 1.574-.381.431-.928.678-1.502.678zm-6.245-4h3.975l-1.342-10.564h-1.291z" fill="#3762cc" data-original="#3762CC"/><path d="m128.404 187.198h-.809c-.503 0-.947-.056-1.356-.171-.685-.193-1.29-.522-1.749-.952-.619-.576-.96-1.317-.96-2.085 0-.553.448-1 1-1s1 .447 1 1c0 .265.176.485.324.623.229.213.549.382.927.488.23.065.497.097.814.097h.809c.317 0 .584-.031.815-.097.377-.106.697-.275.925-.487.149-.139.325-.359.325-.624 0-.553.448-1 1-1s1 .447 1 1c0 .768-.341 1.509-.961 2.086-.458.429-1.063.758-1.747.95-.41.117-.854.172-1.357.172z" fill="#3762cc" data-original="#3762CC"/></g> </svg>
