<?xml version="1.0"?>
<svg xmlns="http://www.w3.org/2000/svg" height="512px" viewBox="1 -52 511.99998 511" width="512px" class=""><g><path d="m479.433594 131.71875v259.507812c0 8.464844-6.859375 15.335938-15.335938 15.335938h-81.144531c-8.476563 0-15.339844-6.871094-15.339844-15.335938v-259.507812c0-8.464844 6.863281-15.335938 15.339844-15.335938h81.144531c8.476563 0 15.335938 6.871094 15.335938 15.335938zm0 0" fill="#8cbcff" data-original="#8CBCFF" class=""/><path d="m332.132812 209.695312v181.53125c0 8.464844-6.871093 15.335938-15.335937 15.335938h-81.15625c-8.476563 0-15.335937-6.871094-15.335937-15.335938v-181.53125c0-8.46875 6.859374-15.339843 15.335937-15.339843h81.15625c8.464844 0 15.335937 6.871093 15.335937 15.339843zm0 0" fill="#6aa9ff" data-original="#6AA9FF" class=""/><path d="m332.132812 209.695312v181.53125c0 8.464844-6.871093 15.335938-15.335937 15.335938h-40.582031v-212.207031h40.582031c8.464844 0 15.335937 6.871093 15.335937 15.339843zm0 0" fill="#8cbcff" data-original="#8CBCFF" class=""/><path d="m184.824219 265.777344v125.449218c0 8.464844-6.871094 15.335938-15.335938 15.335938h-81.15625c-8.464843 0-15.335937-6.871094-15.335937-15.335938v-125.449218c0-8.464844 6.871094-15.335938 15.335937-15.335938h81.15625c8.464844 0 15.335938 6.871094 15.335938 15.335938zm0 0" fill="#4895ff" data-original="#4895FF"/><path d="m184.824219 265.777344v125.449218c0 8.464844-6.871094 15.335938-15.335938 15.335938h-40.582031v-156.121094h40.582031c8.464844 0 15.335938 6.871094 15.335938 15.335938zm0 0" fill="#6aa9ff" data-original="#6AA9FF" class=""/><path d="m479.433594 131.71875v259.507812c0 8.464844-6.859375 15.335938-15.335938 15.335938h-40.574218v-290.179688h40.574218c8.476563 0 15.335938 6.871094 15.335938 15.335938zm0 0" fill="#aed0ff" data-original="#AED0FF"/><path d="m512 391.226562c0 8.464844-6.859375 15.335938-15.335938 15.335938h-481.328124c-8.464844 0-15.335938-6.871094-15.335938-15.335938v-319.109374c0-8.476563 6.871094-15.335938 15.335938-15.335938 8.46875 0 15.339843 6.859375 15.339843 15.335938v303.769531h465.988281c8.476563 0 15.335938 6.863281 15.335938 15.339843zm0 0" fill="#2682ff" data-original="#2682FF" class=""/><path d="m448.863281 16.738281-43.734375 59.570313c-2.332031 3.171875-7.21875 2.628906-8.804687-.96875l-7.964844-18.148438-119.996094 52.6875-159.988281 70.253906c-2.003906.878907-4.101562 1.300782-6.15625 1.300782-5.902344 0-11.535156-3.425782-14.058594-9.183594-3.40625-7.75.121094-16.800781 7.882813-20.203125l172.320312-75.664063 107.667969-47.269531-9.417969-21.441406c-1.585937-3.609375 1.328125-7.578125 5.246094-7.136719l73.445313 8.105469c3.914062.429687 5.886718 4.929687 3.558593 8.097656zm0 0" fill="#6aa9ff" data-original="#6AA9FF" class=""/><path d="m448.863281 16.738281-43.734375 59.570313c-2.332031 3.171875-7.21875 2.628906-8.804687-.96875l-7.964844-18.148438-119.996094 52.6875v-33.496094l107.667969-47.269531-9.417969-21.441406c-1.585937-3.609375 1.328125-7.578125 5.246094-7.136719l73.445313 8.105469c3.914062.429687 5.886718 4.929687 3.558593 8.097656zm0 0" fill="#8cbcff" data-original="#8CBCFF" class=""/><path d="m512 391.226562c0 8.464844-6.859375 15.335938-15.335938 15.335938h-228.300781v-30.675781h228.300781c8.476563 0 15.335938 6.863281 15.335938 15.339843zm0 0" fill="#005fe1" data-original="#005FE1" class="active-path" style="fill:#005FE1"/></g> </svg>
